<?xml version="1.0" encoding="utf-8"?>
<!-- Generator: Adobe Illustrator 26.5.0, SVG Export Plug-In . SVG Version: 6.00 Build 0)  -->
<svg version="1.1" id="Capa_1" xmlns="http://www.w3.org/2000/svg" xmlns:xlink="http://www.w3.org/1999/xlink" x="0px" y="0px"
	 viewBox="0 0 32 32" style="enable-background:new 0 0 32 32;" xml:space="preserve">
<style type="text/css">
	.st0{fill:#FFFFFF;}
	.st1{fill:#AD0000;}
</style>
<path class="st0" d="M3.9,0h24.1C30.2,0,32,1.8,32,3.9v24.1c0,2.2-1.8,3.9-3.9,3.9H3.9C1.8,32,0,30.2,0,28.1V3.9C0,1.8,1.8,0,3.9,0z
	"/>
<g>
	<path class="st1" d="M6.4,15.4l-1,3.5c-0.1,0.5-0.2,0.9-0.2,1.1c0,0.2,0.1,0.4,0.3,0.5c0.2,0.1,0.5,0.2,1.1,0.2l-0.1,0.3H0.9
		L1,20.7c0.6,0,1-0.1,1.2-0.3c0.3-0.2,0.5-0.7,0.7-1.4l2.1-7.4c0.1-0.4,0.2-0.7,0.2-1c0-0.2-0.1-0.4-0.2-0.5C4.9,9.9,4.5,9.9,4,9.8
		l0.1-0.3h4.8c1.4,0,2.3,0.2,2.9,0.7c0.6,0.5,0.8,1.1,0.8,1.8c0,0.8-0.3,1.5-1,2.1c-0.4,0.4-1.1,0.7-2.2,1l1,3.5
		c0.3,0.9,0.5,1.5,0.7,1.7s0.6,0.3,1,0.3v0.3H8.7L7,15.4l-0.3,0C6.7,15.4,6.6,15.4,6.4,15.4z M6.6,14.9c0.2,0,0.4,0,0.5,0
		c0.8,0,1.5-0.3,2-0.9c0.5-0.6,0.8-1.3,0.8-2.2c0-0.5-0.1-1-0.4-1.2c-0.3-0.3-0.7-0.4-1.1-0.4c-0.1,0-0.2,0-0.4,0L6.6,14.9z"/>
	<path class="st1" d="M15.5,9.8l0.1-0.3h5.6l-0.1,0.3c-0.5,0-0.9,0.1-1.2,0.3c-0.3,0.2-0.5,0.7-0.7,1.4L17.1,19
		c-0.2,0.5-0.2,0.9-0.2,1c0,0.2,0.1,0.4,0.2,0.5c0.2,0.1,0.6,0.2,1.2,0.2l-0.1,0.3h-5.7l0.1-0.3c0.6,0,1-0.1,1.3-0.3
		c0.3-0.2,0.5-0.7,0.7-1.4l2.1-7.4c0.1-0.5,0.2-0.8,0.2-1c0-0.2-0.1-0.4-0.2-0.5C16.5,9.9,16.1,9.9,15.5,9.8z"/>
	<path class="st1" d="M22.6,9.5h4.6c1,0,1.7,0.1,2.2,0.2c0.6,0.1,1,0.4,1.3,0.8c0.3,0.4,0.5,0.8,0.5,1.3c0,0.4-0.1,0.8-0.4,1.3
		c-0.3,0.4-0.6,0.8-1.1,1.1c-0.5,0.3-1.3,0.5-2.3,0.8c1.1,0.3,1.8,0.7,2.2,1.2c0.4,0.5,0.6,1,0.6,1.6c0,0.6-0.2,1.2-0.6,1.7
		c-0.4,0.6-1,1-1.6,1.3c-0.7,0.3-1.9,0.4-3.7,0.4h-4.8l0.1-0.3c0.5,0,0.8,0,1-0.1c0.2-0.1,0.4-0.2,0.5-0.4c0.1-0.2,0.3-0.6,0.4-1.1
		l2.1-7.1c0.2-0.7,0.3-1.2,0.3-1.4c0-0.2-0.1-0.4-0.3-0.5c-0.2-0.1-0.5-0.2-1.1-0.2L22.6,9.5z M25,15.2l-1.5,5.1c0.3,0,0.5,0,0.6,0
		c1.3,0,2.1-0.4,2.6-1.1s0.7-1.5,0.7-2.3c0-0.4-0.1-0.7-0.3-1c-0.2-0.3-0.4-0.5-0.7-0.6C26.2,15.3,25.7,15.2,25,15.2z M25.2,14.6
		c0.8,0,1.4-0.1,1.8-0.4c0.4-0.2,0.8-0.6,1.1-1.1c0.3-0.5,0.4-1,0.4-1.5c0-0.4-0.1-0.8-0.4-1.1c-0.3-0.3-0.7-0.4-1.1-0.4l-0.5,0
		L25.2,14.6z"/>
</g>
</svg>
